<svg width="20" height="18" viewBox="0 0 20 18" fill="none" xmlns="http://www.w3.org/2000/svg">
<path fill-rule="evenodd" clip-rule="evenodd" d="M18.262 9.62598V9.62294C18.7615 9.10026 19.1543 8.48472 19.418 7.8107C19.697 7.09764 19.8254 6.33458 19.7952 5.56948C19.765 4.80439 19.5768 4.05382 19.2424 3.36499C18.9081 2.67616 18.4348 2.06397 17.8524 1.56691C17.27 1.06986 16.591 0.698693 15.8582 0.476764C15.1253 0.254834 14.3545 0.186941 13.5942 0.277353C12.8339 0.367766 12.1005 0.614528 11.4401 1.00212C10.8934 1.32303 10.4065 1.73474 9.99998 2.21867C9.59345 1.73474 9.10659 1.32303 8.55986 1.00212C7.89951 0.614528 7.16612 0.367766 6.40578 0.277353C5.64545 0.186941 4.87463 0.254834 4.14181 0.476764C3.40899 0.698693 2.73002 1.06986 2.14759 1.56691C1.56517 2.06397 1.0919 2.67616 0.757544 3.36499C0.423189 4.05382 0.234984 4.80439 0.204764 5.56948C0.174544 6.33458 0.302964 7.09764 0.581948 7.8107C0.860931 8.52376 1.28446 9.17139 1.82587 9.71284L9.99997 17.8859L18.262 9.62598Z" fill="#BB8C5F"/>
</svg>
