<svg width="20" height="18" viewBox="0 0 20 18" fill="none" xmlns="http://www.w3.org/2000/svg">
<path fill-rule="evenodd" clip-rule="evenodd" d="M18.262 9.62598V9.62294C18.7615 9.10026 19.1543 8.48472 19.418 7.8107C19.697 7.09764 19.8254 6.33457 19.7952 5.56948C19.765 4.80439 19.5768 4.05382 19.2424 3.36499C18.9081 2.67616 18.4348 2.06397 17.8524 1.56691C17.27 1.06986 16.591 0.698693 15.8582 0.476764C15.1254 0.254834 14.3545 0.186941 13.5942 0.277353C12.8339 0.367766 12.1005 0.614528 11.4401 1.00212C10.8934 1.32303 10.4065 1.73474 10 2.21867C9.59347 1.73474 9.10661 1.32303 8.55987 1.00212C7.89953 0.614528 7.16613 0.367766 6.4058 0.277353C5.64547 0.186941 4.87465 0.254834 4.14183 0.476764C3.40901 0.698693 2.73003 1.06986 2.14761 1.56691C1.56519 2.06397 1.09192 2.67616 0.75756 3.36499C0.423205 4.05382 0.234999 4.80439 0.204779 5.56948C0.174559 6.33457 0.302979 7.09764 0.581963 7.8107C0.860946 8.52376 1.28448 9.17139 1.82588 9.71284L9.99999 17.8859L18.262 9.62598ZM3.044 8.66744L9.99999 15.6244L17.0438 8.57859C17.442 8.18037 17.7503 7.70164 17.9483 7.17449C18.1462 6.64734 18.2292 6.08396 18.1916 5.52212C18.154 4.96029 17.9967 4.41299 17.7303 3.91692C17.4638 3.42084 17.0944 2.98747 16.6468 2.64585C16.1992 2.30423 15.6837 2.06227 15.1349 1.93618C14.5861 1.81009 14.0167 1.8028 13.4649 1.91478C12.913 2.02677 12.3915 2.25544 11.9353 2.58548C11.479 2.91552 11.0986 3.33928 10.8196 3.82836L10.7332 3.97969H9.26677L9.18043 3.82836C8.90138 3.33928 8.52098 2.91552 8.06475 2.58548C7.60852 2.25544 7.087 2.02677 6.53515 1.91478C5.98331 1.8028 5.4139 1.81009 4.86511 1.93618C4.31631 2.06227 3.80082 2.30423 3.3532 2.64585C2.90557 2.98747 2.53616 3.42084 2.26973 3.91692C2.0033 4.41299 1.84601 4.96029 1.80841 5.52212C1.77081 6.08396 1.85377 6.64734 2.05172 7.17449C2.24967 7.70164 2.55805 8.18037 2.95616 8.57859L3.044 8.66744Z" fill="#524336"/>
</svg>
